<?xml version="1.0" encoding="UTF-8" standalone="no"?>
<!-- Created with Inkscape (http://www.inkscape.org/) -->
<svg xmlns:rdf="http://www.w3.org/1999/02/22-rdf-syntax-ns#" xmlns="http://www.w3.org/2000/svg" version="1.1" xmlns:cc="http://creativecommons.org/ns#" xmlns:dc="http://purl.org/dc/elements/1.1/" viewBox="0 0 208.3 185.4">
 <metadata>
  <rdf:RDF>
   <cc:Work rdf:about="">
    <dc:format>image/svg+xml</dc:format>
    <dc:type rdf:resource="http://purl.org/dc/dcmitype/StillImage"/>
    <dc:title/>
   </cc:Work>
  </rdf:RDF>
 </metadata>
 <g fill-rule="evenodd" transform="translate(-399.16444,-339.58371)">
  <path d="m479.8,346.4c32.21-0.525,50.69,2.028,50.69,2.028s-0.4838,37.38-1.351,45.62c-9.199-0.5362-19.6-0.9025-20.05,8.335-0.57,11.7,2.624,18.79,26.25,22.19,0,3.718,0.4488,10.82,0.4488,14.53-23.56,0.7295-73.78,5.857-81.21-10.81-8.073-18.1-3.525-56.56,5.182-69.5,4.548-6.764,11.67-12.55,20.05-12.39zm122.3,4.844-61.62-1.802-2.591,90.68,65.56-1.014-0.3375-11.26-21.85-0.1125,0-13.63,13.63,0,0-11.15-14.87,0,0-14.87,22.3-0.3375-0.225-36.5zm-192.1,0.45-0.7891,88.09,38.19,0.3374-1.578-89.21-35.82,0.7875zm67.14,166.5-17.35,0-1.239-9.912-17.35,0-3.267,11.6-31.99-3.38,16-72.43,41.11-2.929,14.08,77.05zm-21.06-21.06-4.506-16.78-6.871,20.61,11.38-0.1122,0-3.718zm81.89,6.196s-20.5,2.253-24.56-2.929c-4.055-5.181-7.322-13.52-3.718-20.5,3.605-6.984,14.04-5.356,28.16-4.957,0.4125-9.912,0.15-20.73,0.5638-30.64-17.77-1.944-37.45-6.692-50.01,4.505-10.54,9.391-18.13,56.27-3.83,67.59,7.04,7.006,45.73,4.38,63.19,3.154v-32.33h-22.3l0.009,5.037,12.38-0.0806,0.1138,11.15zm14.98,16,49.22-1.464-0.5638-9.463-17.91-0.1119,0-11.15,12.39,0,0-10.02-12.39,0.1124,0.6762-12.73,16.78-0.9019-0.1112-29.74-52.04-1.239,3.944,76.71" fill="#231f20"/>
  <path d="m476.9,343.7c32.21-0.525,50.69,2.029,50.69,2.029s-0.485,37.38-1.352,45.62c-9.199-0.5362-19.6-0.9012-20.05,8.335-0.5704,11.7,2.623,18.79,26.25,22.19,0,3.718,0.45,10.81,0.45,14.53-23.56,0.7295-73.78,5.858-81.22-10.81-8.073-18.1-3.525-56.56,5.182-69.5,4.548-6.762,11.67-12.55,20.05-12.39zm122.3,4.844-61.62-1.801-2.59,90.68,65.56-1.014-0.3375-11.26-21.85-0.1125,0-13.63,13.63,0,0-11.15-14.87,0,0-14.87,22.3-0.3362-0.225-36.5zm-192.1,0.45-0.789,88.09,38.19,0.3379-1.578-89.21-35.82,0.7875zm67.14,166.5-17.35,0-1.239-9.913-17.35,0-3.266,11.6-31.99-3.38,16-72.43,41.11-2.928,14.08,77.05zm-21.06-21.06-4.507-16.78-6.87,20.61,11.38-0.1132,0-3.716zm81.89,6.195s-20.5,2.253-24.56-2.929c-4.055-5.181-7.322-13.52-3.718-20.5,3.605-6.984,14.04-5.355,28.16-4.957,0.4125-9.911,0.15-20.73,0.5638-30.64-17.77-1.943-37.45-6.692-50.01,4.505-10.54,9.391-18.13,56.27-3.83,67.59,7.04,7.006,45.73,4.38,63.19,3.154v-32.33h-22.3l0.01,5.036,12.38-0.0806,0.1125,11.15zm14.98,16,49.22-1.464-0.5638-9.463-17.91-0.1119,0-11.15,12.39,0,0-10.03-12.39,0.1134,0.6762-12.73,16.78-0.9012-0.1138-29.74-52.04-1.239,3.944,76.71" fill="#39bbf0"/>
 </g>
</svg>
